<svg xmlns="http://www.w3.org/2000/svg" width="1200" height="943" viewBox="0 0 1200 943" version="1.1">
	<path d="M 717 0.685 C 675.267 3.800, 639.356 13.311, 604.500 30.482 C 556.701 54.029, 522.818 86.671, 503.051 128.216 C 491.277 152.960, 483.394 184.946, 485.988 197.444 C 487.332 203.916, 490.513 208.158, 496.376 211.294 L 500.500 213.500 564 213.500 L 627.500 213.500 631.259 211.163 C 635.991 208.221, 639.427 202.396, 642.679 191.800 C 649.350 170.068, 661.879 154.417, 682.434 142.144 C 703.025 129.849, 734.594 123.247, 760.322 125.855 C 803.976 130.281, 835.609 152.539, 846.833 186.728 C 851.993 202.448, 854.124 235.011, 851.104 252 C 845.427 283.937, 827.861 309.175, 802.164 322.317 C 782.754 332.245, 768.119 335.206, 732 336.514 C 722.925 336.843, 712.561 337.775, 708.969 338.586 C 687.980 343.325, 670.206 361.095, 664.467 383.080 C 662.140 391.993, 662.898 409.007, 666.017 417.858 C 671.059 432.171, 682.294 444.619, 696.371 451.490 C 706.908 456.633, 713.469 457.938, 734.500 459.073 C 770.263 461.002, 788.528 463.949, 804 470.286 C 840.760 485.342, 860.650 515.405, 865.089 562.619 C 867.997 593.542, 859.909 624.853, 843.645 645.639 C 808.549 690.494, 726.168 699.568, 672.376 664.504 C 652.942 651.837, 640.601 634.426, 633.056 609.028 C 631.387 603.407, 629.074 597.125, 627.918 595.068 C 625.118 590.085, 619.016 586.264, 612.640 585.501 C 609.813 585.162, 581.400 585.023, 549.500 585.192 L 491.500 585.500 486.507 588 C 483.336 589.587, 480.416 592.085, 478.507 594.843 C 475.562 599.096, 475.502 599.425, 475.621 610.843 C 475.920 639.540, 488.685 675.920, 509.178 706.476 C 513.965 713.613, 517.725 719.609, 517.533 719.800 C 516.202 721.132, 423.788 731.808, 422.756 730.750 C 422.622 730.612, 422.285 571.200, 422.006 376.500 L 421.500 22.500 419.201 17.512 C 414.511 7.336, 408.434 3.590, 397.591 4.190 C 391.218 4.542, 378.445 8.970, 271.500 47.894 C 206.050 71.715, 150.663 92.352, 148.417 93.752 C 142.997 97.133, 140.228 101.399, 138.943 108.349 C 138.269 111.995, 137.996 129.794, 138.192 157.289 C 138.487 198.710, 138.587 200.686, 140.595 205 C 144.970 214.397, 152.885 218.832, 163.276 217.710 C 166.149 217.400, 182.900 212.655, 200.500 207.165 C 259.092 188.889, 256.530 189.523, 259.128 192.654 C 261.232 195.189, 261.690 765.413, 259.592 770.434 C 257.710 774.938, 255.847 776.024, 240.500 781.562 C 185.365 801.458, 130.890 827.510, 79 858.800 C 59.606 870.494, 13.159 899.944, 9.212 903.048 C 4.990 906.369, 2.139 911.013, 1.023 916.389 C -1.691 929.462, 8.983 943, 22.003 943 C 24.408 943, 43.728 938.920, 64.938 933.933 C 146.849 914.674, 185.060 906.824, 242.039 897.547 C 463.924 861.422, 699.290 859.718, 925.500 892.601 C 996.291 902.891, 1071.196 917.672, 1143.023 935.525 C 1174.218 943.278, 1177.069 943.703, 1184.128 941.651 C 1192.015 939.358, 1196.575 934.082, 1199.953 923.338 C 1201.203 919.364, 1201.109 918.866, 1197.881 912.338 C 1194.711 905.927, 1193.801 905.001, 1183.295 897.500 C 1177.132 893.100, 1162.732 883.594, 1151.295 876.375 C 1085.513 834.856, 1016.162 801.271, 943 775.502 C 929.773 770.844, 922.500 767.794, 922.500 766.907 C 922.500 766.151, 927.833 761.518, 934.351 756.611 C 963.678 734.536, 985.888 708.450, 1000.098 679.390 C 1028.131 622.061, 1029.134 545.351, 1002.569 490.512 C 995.017 474.922, 984.409 459.519, 973.118 447.751 C 961.205 435.335, 952.773 428.395, 937.498 418.435 C 930.962 414.174, 924.515 409.520, 923.171 408.093 C 917.551 402.126, 915.749 393.940, 918.224 385.616 C 919.673 380.743, 925.414 374.797, 942.326 360.657 C 971.615 336.167, 993.878 302.794, 1002.801 270 C 1008.418 249.360, 1010.466 221.745, 1008.078 198.862 C 1001.069 131.709, 971.849 81.141, 920.058 46.539 C 880.430 20.062, 832.900 5.279, 773.813 1.051 C 760.346 0.087, 727.817 -0.122, 717 0.685 M 0.158 921 C 0.158 922.375, 0.385 922.938, 0.662 922.250 C 0.940 921.563, 0.940 920.438, 0.662 919.750 C 0.385 919.063, 0.158 919.625, 0.158 921" stroke="none" fill="black" fill-rule="evenodd"/>
</svg>